#N canvas 879 509 372 336 10;
#X obj 33 44 adc~ 1;
#X obj 35 209 delread~ buffer 50;
#X obj 35 277 dac~ 1 2;
#X text 69 87 < try enveloping the input with an lfo!;
#X obj 169 236 delread~ buffer 150;
#X obj 33 126 delwrite~ buffer 1000;
#X obj 33 86 *~;
#X obj 97 50 osc~ 1;
#X obj 35 246 *~ 1;
#X obj 169 263 *~ 1;
#X connect 0 0 6 0;
#X connect 1 0 8 0;
#X connect 4 0 9 0;
#X connect 6 0 5 0;
#X connect 7 0 6 1;
#X connect 8 0 2 0;
#X connect 9 0 2 1;
