#N canvas 336 76 748 466 10;
#X obj 144 269 patch4_freqmodvoice;
#X obj 144 366 dac~ 1 2, f 9;
#X obj 44 21 key;
#X floatatom 44 48 5 0 0 0 - - -;
#X obj 144 201 pack f f f;
#X msg 44 100 60;
#X msg 158 90 62;
#X obj 639 354 tgl 15 0 empty empty empty 17 7 0 10 -262144 -1 -1 0
1;
#X msg 639 377 \; pd dsp \$1;
#X text 98 18 lets turn your computer keyboard into a midi controller
first....;
#X text 445 114 stuff to try:;
#X text 430 138 1) scale up to 4 voices;
#X text 459 160 - advanced users: have a look at [clone];
#X text 399 200 2) assign forms of control for modulation stage;
#X text 492 223 - use an audio source w/ env~;
#X obj 445 240 adc~;
#X obj 445 261 env~ 64;
#X floatatom 445 283 5 0 0 0 - - -;
#X text 487 282 < is this useful?;
#X text 471 419 stuff to try: change out waveform type!;
#X obj 44 123 makenote 127 500;
#X obj 158 123 makenote 127 500;
#X obj 44 253 print;
#X obj 195 305 patch4_freqmodvoice;
#X obj 44 76 sel 97 115;
#X obj 144 231 route 1 2;
#X obj 281 238 hsl 128 15 0 127 0 0 empty empty empty -2 -8 0 10 -262144
-1 -1 0 1;
#X obj 144 176 poly 2 1;
#X obj 38 413 clone;
#X text 80 412 < for another time?;
#X connect 0 0 1 0;
#X connect 2 0 3 0;
#X connect 3 0 24 0;
#X connect 4 0 22 0;
#X connect 4 0 25 0;
#X connect 5 0 20 0;
#X connect 6 0 21 0;
#X connect 7 0 8 0;
#X connect 15 0 16 0;
#X connect 16 0 17 0;
#X connect 20 0 27 0;
#X connect 20 1 27 1;
#X connect 21 0 27 0;
#X connect 21 1 27 1;
#X connect 23 0 1 1;
#X connect 24 0 5 0;
#X connect 24 1 6 0;
#X connect 25 0 0 0;
#X connect 25 1 23 0;
#X connect 26 0 0 1;
#X connect 26 0 23 1;
#X connect 26 0 0 2;
#X connect 26 0 23 2;
#X connect 27 0 4 0;
#X connect 27 1 4 1;
#X connect 27 2 4 2;
