#N canvas 527 330 463 233 10;
#X obj 25 43 adc~ 1;
#X obj 25 110 delwrite~ buffer 1000;
#X obj 210 35 delread~ buffer 100;
#X obj 292 71 delread~ buffer 500;
#X msg 26 165 \; pd dsp \$1;
#X obj 26 144 tgl 15 0 empty empty empty 17 7 0 10 -262144 -1 -1 0
1;
#X obj 77 57 tgl 15 0 empty empty empty 17 7 0 10 -262144 -1 -1 0 1
;
#X obj 25 81 *~;
#X obj 247 132 dac~ 1 2;
#X obj 292 101 *~ 1;
#X obj 210 61 *~ 1;
#X connect 0 0 7 0;
#X connect 2 0 10 0;
#X connect 3 0 9 0;
#X connect 5 0 4 0;
#X connect 6 0 7 1;
#X connect 7 0 1 0;
#X connect 9 0 8 1;
#X connect 10 0 8 0;
