#N canvas 879 509 434 227 10;
#X obj 21 181 dac~ 1 2;
#X obj 25 36 hsl 128 15 0 127 0 0 empty empty empty -2 -8 0 10 -262144
-1 -1 0 1;
#X obj 21 69 mtof;
#X text 154 103 connect up your oscillator!;
#X obj 162 145 tgl 15 0 empty empty empty 17 7 0 10 -262144 -1 -1 0
1;
#X msg 162 170 \; pd dsp \$1;
#X text 154 86 task 1;
#X text 243 170 < this is a broadcast message;
#X text 185 144 < turn on your audio!;
#X obj 21 141 *~ 1;
#X text 110 96 ****;
#X text 333 96 ****;
#X obj 20 102 osc~ 220;
#X text 21 8 v this is a slider CMD/CTL + J or V;
#X text 173 35 < right click for properties;
#X connect 4 0 5 0;
