#N canvas 109 194 408 350 10;
#X obj 31 70 osc~;
#X obj 31 296 dac~ 1 2;
#X obj 34 31 hsl 128 15 0 127 0 0 empty empty empty -2 -8 0 10 -262144
-1 -1 0 1;
#X obj 31 50 mtof;
#X obj 256 240 tgl 15 0 empty empty empty 17 7 0 10 -262144 -1 -1 0
1;
#X msg 256 259 \; pd dsp \$1;
#X obj 76 177 hsl 128 15 0 127 0 0 empty empty empty -2 -8 0 10 -262144
-1 -1 0 1;
#X obj 73 196 / 127;
#X obj 73 236 line~;
#X obj 31 259 *~;
#X text 179 30 task 3: add ring mod/lfo stage;
#X obj 31 149 *~;
#X text 67 148 <add a second oscillator here>;
#X msg 73 216 \$1 50;
#X text 63 110 <add another slider - cmd/ctl + j>;
#X connect 0 0 11 0;
#X connect 2 0 3 0;
#X connect 3 0 0 0;
#X connect 4 0 5 0;
#X connect 6 0 7 0;
#X connect 7 0 13 0;
#X connect 8 0 9 1;
#X connect 9 0 1 0;
#X connect 9 0 1 1;
#X connect 11 0 9 0;
#X connect 13 0 8 0;
