#N canvas 879 509 433 416 10;
#X obj 36 47 adc~ 1;
#X obj 36 89 *~;
#X obj 36 129 delwrite~ buffer 1000;
#X obj 38 345 dac~ 1 2;
#X text 72 90 < try enveloping the input with an lfo!;
#X obj 104 45 tgl 15 0 empty empty empty 17 7 0 10 -262144 -1 -1 1
1;
#X obj 38 246 line~;
#X obj 38 298 vd~ buffer;
#X obj 38 270 *~ 1;
#X msg 38 222 \$1 2000;
#X obj 41 166 hsl 128 15 0 127 0 0 empty empty empty -2 -8 0 10 -262144
-1 -1 1600 1;
#X obj 38 186 expr $f1 / 127 * 1000;
#X connect 0 0 1 0;
#X connect 1 0 2 0;
#X connect 5 0 1 1;
#X connect 6 0 8 0;
#X connect 7 0 3 0;
#X connect 7 0 3 1;
#X connect 8 0 7 0;
#X connect 9 0 6 0;
#X connect 10 0 11 0;
#X connect 11 0 9 0;
