#N canvas 705 273 480 245 10;
#X text 154 110 connect up your oscillator!;
#X obj 162 152 tgl 15 0 empty empty empty 17 7 0 10 -262144 -1 -1 0
1;
#X msg 162 177 \; pd dsp \$1;
#X text 154 93 task 1;
#X text 243 177 < this is a broadcast message;
#X text 185 151 < turn on your audio!;
#X text 110 103 ****;
#X text 333 103 ****;
#X text 21 15 v this is a slider CMD/CTL + J or V;
#X text 173 42 < right click for properties;
#X obj 24 40 hsl 128 15 0 127 0 0 empty empty empty -2 -8 0 10 -262144
-1 -1 0 1;
#X text 57 85 < frequency;
#X obj 21 143 *~ 1;
#X obj 21 109 osc~;
#X obj 21 188 dac~ 1 2;
#X floatatom 21 86 5 0 0 0 - - -;
#X obj 21 63 mtof;
#X connect 1 0 2 0;
#X connect 10 0 16 0;
#X connect 12 0 14 0;
#X connect 12 0 14 1;
#X connect 13 0 12 0;
#X connect 15 0 13 0;
#X connect 16 0 15 0;
