#N canvas 425 179 450 300 10;
#X obj 116 94 osc~;
#X obj 114 117 *~ 1e+06;
#X obj 114 140 clip~ 0 1;
#X obj 114 62 inlet~;
#X obj 111 173 outlet~;
#X connect 0 0 1 0;
#X connect 1 0 2 0;
#X connect 2 0 4 0;
#X connect 3 0 0 0;
